<svg width="217" height="241" fill="none" xmlns="http://www.w3.org/2000/svg"><path d="M181 180c-2.8 3.2-19.5 19.333-27 32l-23 26.5H72.5l-27.5-13L9.5 186l8-7.5-4-4L12 163v-22l-2.5-18v-17l5-73.5 73-18L154 25c14.5 13.833 47.5 21.5 47.5 21.5 3.716 7.742.292 31.461 2.5 50.5.341 2.944 8.263 4.801 8.5 7.5 3.406 6 2 14 0 18.5-1.875 4.218-4.982 14.949-11 26-10 12-18.537 28.756-20.5 31Z" fill="#D5ADA3"/><path d="M76 188.518c-19.465 0-28.5-6.5-31-11.5 0-5.182 9.99-9.704 22-10 6.531-.162 16.012.688 22 6.5 17 16.5-1.5 15-13 15Z" fill="#B58E93" stroke="#000" stroke-width="2" stroke-linecap="round"/><path d="M197 154c-18 34-63.5 81.5-67.5 82.5s-24 4-54 2.5c-12.454-3.608-29.629-10.555-37.5-21-26-34.5-26.984-28.879-26.984-31 0-2.5 2.5-5 3.5-7.5M67.657 102l-7 30c-4 4-8 13.2-4 14 4 .8 1 4.5 3.5 5.5s8.5 0 10-1.5 4 1 8 0 4-7.5 4-8.5" stroke="#000" stroke-width="2" stroke-linecap="round"/><path d="M111.046 166.664c.5-3.833-4.1-13.5-26.5-21.5M49.046 144.164c-2.667 1.334-8 5-8 9" stroke="#000" stroke-width="2" stroke-linecap="round"/><path d="M85.046 172.121c5.6 2 18.167 15.5 23 22.5 1.5-5.5-1.5-42.5-20.5-42.5s-22 1-28.5 0c-7.635-1.175-17.667 6.5-20.5 11.5-1.167 11.166-2.8 31.4 0 23 3.5-10.5 11.5-14.5 14.5-16.5s25-.5 32 2Z" fill="#2E241B" stroke="#000" stroke-width="2" stroke-linecap="round"/><path d="M95 105.007c3.833-1.833 15.8-1.8 33 13" stroke="#000" stroke-width="2" stroke-linecap="round"/><path d="M100 105.007c-3.836 2.144-4 8 0 10.302 2.082 1.198 6.637 1.358 8 0 1.858-1.852 1.673-4.994 1-7.302 0-2-6-2.802-9-3Z" fill="#000"/><path d="M97.5 106.007c-1.5 8-.9 18.4 13.5 12 18-8 14 1 12.5-2.5m-14.5-7.5c0-2-6-2.802-9-3-3.836 2.144-4 8 0 10.302 2.082 1.198 6.637 1.358 8 0 1.858-1.852 1.673-4.994 1-7.302Z" stroke="#000" stroke-width="2" stroke-linecap="round"/><path d="M85.5 97.007c8.333-.833 27.1-.7 35.5 6.5" stroke="#000" stroke-width="5" stroke-linecap="round"/><path d="M183.819 113.664c4.667-7.666 16.5-20.7 26.5-11.5 12.5 11.5-3.5 29-5 38s-5 13-8.5 13-10-1.5-13 0c-2.136 1.068 0 0-4 4.627-4 4.626-4.593 5.219-3 7.873m15.5-38c.333-3.333 2.2-10.5 7-10.5 6 0 2 0 4.5 2.5" stroke="#000" stroke-width="2" stroke-linecap="round"/><path d="M196.319 120.164c2.306 4.357 2.278 9.969 1 12.5-1.216 2.408-3.606 1.838-4.5 2M25 121.007c.317-1.125.851-2.506 1.626-4m0 0c2.896-5.583 6.644-12.237 17.374-13.5 6.761-.795 8.278 2.731 8.5 6 .336 4.95-2.746 9.102-12 8.5-12.642 0-14.183-.333-13.874-1Z" stroke="#000" stroke-width="2" stroke-linecap="round"/><path d="m35.5 117.007-5-4c1.667-2.333 5.5-7.1 7.5-7.5 2.5-.5 3.5.5 4.5 7.5.8 5.6-4.333 5-7 4Z" fill="#000" stroke="#000" stroke-width="2" stroke-linecap="round"/><path d="M44.5 95.007c-6.667-.166-20.3 2.5-21.5 14.5" stroke="#000" stroke-width="5" stroke-linecap="round"/><path d="M5.376 36.294c-8.4 18 .834 30.5 6.5 34.5v.11c0 1.793 12.154-4.442 34-8.11 13.767-2.31 36.75-2.313 52.5-3.5 15.445-1.163 56.714-19.819 58.5-8 6.5 43 9.5 51.001 12 53.001s12.5 6.5 13.5 0 19-6 25-7 2.5-27-1.5-55c-2.608-18.259-27.449-29.96-43.5-33.5-8.564-1.89-9.977 5.566-14.5 0-10.4-12.8-51.666-7-71-2.5-20.333 2.5-63.1 12-71.5 30Z" fill="#2E241B" stroke="#000" stroke-width="2"/><path d="M12.41 72c-3.667 17.5-7 50-1.5 64.5 2.193 5.783.837 10.559 0 17.5-.711 5.894 1.22 11.468 1.5 17.5.219 4.715 14.014 23.625 34 37 22.722 15.207 53.154 23.929 75.5 8.5" stroke="#000" stroke-width="2"/><path d="m58 173-4 4.5c2.167.333 6.8 1.3 8 2.5 1.5 1.5 24 3 24 0s-7-7-8-7H58Z" fill="#000" stroke="#000" stroke-width="2" stroke-linecap="round"/></svg>