<svg width="249" height="244" fill="none" xmlns="http://www.w3.org/2000/svg"><path d="m103 104 16-15" stroke="#000" stroke-width="4" stroke-linecap="round"/><path d="M118 80.5c-5.149-18.014 32.896-56.25 51.816-71.944 41.548-23.394 71.391 21.933 76.658 40.356C250.981 64.681 224.94 104.916 191 121c-33.94 16.084-66.563-17.983-73-40.5Z" fill="#272727" stroke="#000" stroke-width="4" stroke-linecap="round"/><path d="m154 123-16 15-35-34.5L119.5 88l34.5 35Z" fill="#AAA" stroke="#000" stroke-width="4" stroke-linecap="round"/><path d="M4.77 221.754C11.92 214.594 52.98 170 52.98 170L73 189.842s-33.878 36.859-52.091 49.095C4.77 249.778-2.38 228.913 4.77 221.754Z" fill="#272727" stroke="#000" stroke-width="4" stroke-linecap="round"/><path d="M158 159.981 82.36 85 25 142.437 100.009 217 158 159.981Z" fill="#fff" stroke="#000" stroke-width="4" stroke-linecap="round"/><path d="m74.511 144.858 11.362 10.469-3.334 3.618-1.676-1.545 1.93-2.096-3.11-2.866-9.212 9.909 2.096 1.932-1.403 1.522-5.957-5.489 1.403-1.522 2.096 1.931 9.19-9.93-3.11-2.866-1.932 2.096-1.677-1.545 3.334-3.618Zm12.243 11.28 5.405 4.981-1.403 1.522-1.412-1.301-3.297 8.139-2.022 4.541 4.065-2.331 7.917-4.21-1.412-1.301 1.403-1.522 5.14 4.737-1.402 1.522-2.074-1.911-14.476 7.874-1.986-1.829 6.247-15.457-2.096-1.931 1.403-1.523Z" fill="#000"/><path d="M69.4 126.507c-1.704-1.662-2.885-3.416-3.543-5.261-.645-1.859-.745-3.689-.3-5.491.445-1.801 1.409-3.46 2.89-4.977 2.053-2.104 4.27-3.588 6.65-4.451 2.394-.849 4.704-1.053 6.93-.613 2.24.425 4.19 1.448 5.85 3.069 1.545 1.509 2.327 3.055 2.346 4.639.033 1.57-.586 3.005-1.857 4.308-.852.873-1.694 1.42-2.526 1.643-.818.236-1.513.074-2.085-.485-.4-.391-.625-.791-.672-1.201-.047-.409.103-.793.453-1.151.126-.129.385-.337.777-.624.505-.346.883-.647 1.135-.905 1.271-1.302 1.213-2.631-.175-3.986-.945-.922-2.147-1.495-3.606-1.718-1.46-.223-3.04.009-4.744.694-1.69.671-3.337 1.829-4.944 3.475-1.676 1.717-2.496 3.516-2.46 5.397.051 1.866 1.014 3.714 2.889 5.544.93.909 1.98 1.709 3.147 2.402 1.197.693 2.612 1.362 4.246 2.007.299.124.52.255.663.395.229.224.317.477.263.761-.053.283-.212.561-.478.833-.852.873-1.953 1.056-3.302.549a21.227 21.227 0 0 1-4.142-2.114 24.073 24.073 0 0 1-3.406-2.739Zm7.546 7.368c-.544-.531-.65-1.195-.321-1.991.344-.782 1.131-1.802 2.36-3.062 1.817-1.86 3.807-3.369 5.971-4.527.534-.289 1.035-.387 1.503-.294.496.094 1.009.399 1.538.915.286.28.452.511.496.695.045.183-.03.375-.226.575-.224.229-.834.639-1.83 1.231-.703.433-1.306.822-1.811 1.168-.505.345-1.094.805-1.766 1.379 1.674-.77 3.182-1.255 4.523-1.455 1.34-.2 2.451-.192 3.33.024.895.229 1.578.575 2.05 1.036.93.908.941 1.827.033 2.757-.182.186-.686.574-1.514 1.164-.673.461-1.08.763-1.219.906-.489.501-.555.926-.197 1.275.4.391 1.223.579 2.468.564.367-.004.651.092.852.287.186.182.245.407.178.677-.04.269-.192.54-.457.812-.517.529-1.065.804-1.645.825a8.333 8.333 0 0 1-2.465-.309 4.912 4.912 0 0 1-2.115-1.227c-.758-.74-1.15-1.499-1.173-2.277-.009-.763.308-1.474.95-2.133.21-.214.441-.408.694-.581.308-.258.51-.437.608-.537.224-.229.257-.421.1-.574-.215-.21-.739-.246-1.572-.109-.804.137-1.762.432-2.874.883a21.604 21.604 0 0 0-3.268 1.673c-.814.519-1.448.796-1.9.829-.424.034-.857-.166-1.301-.599Zm25.731 12.039c.186.181.239.414.157.698-.081.284-.262.569-.541.855-.671.687-1.276.892-1.817.616-1.152-.538-2.264-1.288-3.337-2.251-1.445.937-2.925 1.379-4.439 1.326-1.5-.067-2.758-.596-3.774-1.588-.859-.838-1.393-1.765-1.603-2.781a5.565 5.565 0 0 1 .24-2.994 7.405 7.405 0 0 1 1.707-2.694c1.062-1.087 2.212-1.851 3.452-2.29 1.253-.454 2.475-.56 3.666-.32a5.982 5.982 0 0 1 3.138 1.638c1.088 1.062 1.59 2.294 1.508 3.695-.054 1.401-.561 2.708-1.522 3.922.714.613 1.655 1.253 2.823 1.917.142.084.257.167.342.251Zm-11.358-2.452c.458.447 1.033.645 1.726.595.706-.037 1.46-.35 2.258-.94a4.255 4.255 0 0 1 .123-2.186 5.013 5.013 0 0 1 1.165-1.881c.224-.229.469-.437.735-.624l-.107-.105c-.573-.559-1.325-.748-2.256-.567-.903.181-1.843.772-2.821 1.774-.769.787-1.205 1.535-1.31 2.243-.09.722.072 1.286.487 1.691Zm5.081 9.405c-.544-.531-.65-1.195-.32-1.991.344-.782 1.13-1.802 2.36-3.062 1.816-1.86 3.806-3.369 5.97-4.527.534-.289 1.035-.387 1.503-.294.496.093 1.009.398 1.538.915.287.28.452.511.497.694.044.184-.031.376-.227.576-.223.229-.833.639-1.831 1.231-.701.433-1.305.822-1.81 1.168-.505.345-1.093.805-1.765 1.379 1.673-.77 3.181-1.255 4.522-1.455 1.341-.2 2.452-.192 3.331.024.894.229 1.577.575 2.049 1.036.93.908.941 1.827.033 2.757-.545.558-1.687 1.414-3.427 2.566-1.487.98-2.427 1.67-2.818 2.07-.559.573-.63 1.062-.215 1.467.286.279.79.436 1.511.47.75.033 1.839-.023 3.266-.167.367-.033.658.056.873.265.186.182.245.408.177.677-.053.284-.226.576-.519.876-.559.573-1.128.883-1.708.933-1.355.158-2.629.131-3.819-.081-1.177-.198-2.215-.738-3.117-1.618-.73-.712-1.078-1.458-1.045-2.236.047-.792.461-1.589 1.244-2.391.391-.401 1.19-1.018 2.396-1.853 1.066-.72 1.767-1.252 2.102-1.595.224-.229.257-.421.099-.574-.186-.182-.688-.197-1.506-.046-.791.151-1.749.445-2.875.883a21.603 21.603 0 0 0-3.268 1.673c-.814.519-1.447.795-1.9.829-.423.034-.857-.166-1.3-.599Zm23.191.126c-.601-.587-.919-1.163-.954-1.728-.021-.58.213-1.12.702-1.621.489-.501 1.087-.728 1.795-.679.736.047 1.398.358 1.984.93.53.517.833 1.065.911 1.644.078.579-.114 1.105-.575 1.577-.559.572-1.192.849-1.899.829-.694-.034-1.348-.352-1.964-.952Zm-11.425 11.36c-.93-.908-1.289-1.901-1.075-2.979.227-1.063.872-2.139 1.934-3.226.629-.644 1.511-1.39 2.646-2.239a34.059 34.059 0 0 1 3.41-2.204c.576-.333 1.055-.48 1.438-.442.382.038.809.287 1.281.748.73.713.858 1.312.383 1.799-.349.358-1.296 1.055-2.839 2.092-1.88 1.239-3.093 2.137-3.638 2.696-.419.429-.683.814-.792 1.155-.109.34-.028.644.244.909.258.251.755.387 1.49.406.736.02 1.803-.043 3.201-.187.368-.032.659.056.873.266.186.181.246.407.178.676-.053.284-.226.576-.52.876-.558.573-1.128.884-1.707.933-3.107.349-5.276-.078-6.507-1.279Zm6.743 6.582c-1.403-1.369-2.113-2.831-2.132-4.387.009-1.556.65-2.985 1.921-4.287 1.132-1.159 2.353-1.952 3.663-2.378 1.31-.426 2.561-.519 3.752-.278 1.191.24 2.187.751 2.988 1.533.787.769 1.165 1.599 1.133 2.49-.003.891-.361 1.702-1.074 2.432-.586.601-1.218.976-1.895 1.126-.663.163-1.209.035-1.639-.384-.271-.265-.43-.546-.476-.843-.032-.282.064-.538.287-.767.098-.1.224-.201.379-.301.154-.101.266-.173.336-.217.282-.144.513-.31.695-.496.181-.186.271-.378.268-.576.012-.184-.068-.36-.239-.527-.329-.322-.784-.472-1.363-.451-.566.007-1.179.177-1.84.51-.661.334-1.284.801-1.871 1.402-1.621 1.66-1.708 3.195-.263 4.607.587.572 1.405.994 2.455 1.264 1.078.27 2.33.333 3.757.188.367-.032.658.056.873.266.186.181.245.407.178.676-.053.284-.226.576-.52.876-.531.544-1.1.855-1.707.933a9.844 9.844 0 0 1-4.312-.436c-1.363-.464-2.481-1.123-3.354-1.975Zm6.062 5.918c-.816-.796-1.167-1.768-1.053-2.915.127-1.133.701-2.222 1.721-3.266a9.673 9.673 0 0 1 3.959-2.467c1.535-.513 3.04-.651 4.514-.414 1.502.236 2.746.836 3.734 1.8.315.308.459.575.434.801.002.226-.114.532-.35.917.328.208.656.473.985.794.344.335.525.68.543 1.033.019.353-.126.687-.433 1.002-.322.329-.952.832-1.891 1.508a49.499 49.499 0 0 0-2.817 2.155 34.688 34.688 0 0 0-2.728 2.537c-.531.543-1.029.825-1.496.845-.438.019-.907-.215-1.408-.704-.487-.475-.74-.946-.76-1.413.009-.466.271-.965.788-1.494l.357-.323c-1.645.798-3.011.666-4.099-.396Zm2.954-1.351c.4.391 1.038.469 1.912.232.874-.237 2.138-.945 3.793-2.125l2.524-1.77c-.6-.558-1.368-.86-2.302-.906-.92-.059-1.879.122-2.878.544a8.13 8.13 0 0 0-2.673 1.836c-.419.429-.661.835-.727 1.218-.038.382.079.706.351.971Z" fill="#F33737"/></svg>