<svg width="217" height="241" viewBox="0 0 217 241" fill="none" xmlns="http://www.w3.org/2000/svg">
<path d="M181 180C178.2 183.2 161.5 199.333 154 212L131 238.5H72.5L45 225.5L9.5 186L17.5 178.5L13.5 174.5L12 163V141L9.5 123V106L14.5 32.5L87.5 14.5L154 25C168.5 38.8333 201.5 46.5 201.5 46.5C205.216 54.2419 201.792 77.961 204 97C204.341 99.9444 212.263 101.801 212.5 104.5C215.906 110.5 214.5 118.5 212.5 123C210.625 127.218 207.518 137.949 201.5 149C191.5 161 182.963 177.756 181 180Z" fill="#D5ADA3"/>
<path d="M76 188.518C56.5352 188.518 47.5 182.018 45 177.018C45 171.836 54.9897 167.314 67 167.018C73.5311 166.856 83.0119 167.706 89 173.518C106 190.018 87.5 188.518 76 188.518Z" fill="#B58E93" stroke="black" stroke-width="2" stroke-linecap="round"/>
<path d="M197 154C179 188 133.5 235.5 129.5 236.5C125.5 237.5 105.5 240.5 75.5 239C63.046 235.392 45.8712 228.445 38 218C12 183.5 11.016 189.121 11.0161 187C11.0161 184.5 13.516 182 14.516 179.5" stroke="black" stroke-width="2" stroke-linecap="round"/>
<path d="M67.6568 102L60.6569 132C56.6568 136 52.6569 145.2 56.6569 146C60.6569 146.8 57.6568 150.5 60.1568 151.5C62.6568 152.5 68.6568 151.5 70.1568 150C71.6568 148.5 74.1568 151 78.1568 150C82.1568 149 82.1568 142.5 82.1568 141.5" stroke="black" stroke-width="2" stroke-linecap="round"/>
<path d="M111.046 166.664C111.546 162.831 106.946 153.164 84.546 145.164" stroke="black" stroke-width="2" stroke-linecap="round"/>
<path d="M49.046 144.164C46.3794 145.498 41.046 149.164 41.046 153.164" stroke="black" stroke-width="2" stroke-linecap="round"/>
<path d="M85.046 172.121C90.646 174.121 103.213 187.621 108.046 194.621C109.546 189.121 106.546 152.121 87.546 152.121C68.546 152.121 65.546 153.121 59.046 152.121C51.4106 150.946 41.3794 158.621 38.546 163.621C37.3794 174.787 35.746 195.021 38.546 186.621C42.046 176.121 50.046 172.121 53.046 170.121C56.046 168.121 78.046 169.621 85.046 172.121Z" fill="#2E241B" stroke="black" stroke-width="2" stroke-linecap="round"/>
<path d="M95 105.007C98.8333 103.174 110.8 103.207 128 118.007" stroke="black" stroke-width="2" stroke-linecap="round"/>
<path d="M100 105.007C96.1639 107.151 96 113.007 100 115.309C102.082 116.507 106.637 116.667 108 115.309C109.858 113.457 109.673 110.315 109 108.007C109 106.007 103 105.205 100 105.007Z" fill="black"/>
<path d="M97.5 106.007C96 114.007 96.6 124.407 111 118.007C129 110.007 125 119.007 123.5 115.507M109 108.007C109 106.007 103 105.205 100 105.007C96.1639 107.151 96 113.007 100 115.309C102.082 116.507 106.637 116.667 108 115.309C109.858 113.457 109.673 110.315 109 108.007Z" stroke="black" stroke-width="2" stroke-linecap="round"/>
<path d="M85.5 97.0072C93.8333 96.1739 112.6 96.3072 121 103.507" stroke="black" stroke-width="5" stroke-linecap="round"/>
<path d="M183.819 113.664C188.486 105.998 200.319 92.9643 210.319 102.164C222.819 113.664 206.819 131.164 205.319 140.164C203.819 149.164 200.319 153.164 196.819 153.164C193.319 153.164 186.819 151.664 183.819 153.164C181.683 154.232 183.819 153.164 179.819 157.791C175.819 162.417 175.226 163.01 176.819 165.664M192.319 127.664C192.652 124.331 194.519 117.164 199.319 117.164C205.319 117.164 201.319 117.164 203.819 119.664" stroke="black" stroke-width="2" stroke-linecap="round"/>
<path d="M196.319 120.164C198.625 124.521 198.597 130.133 197.319 132.664C196.103 135.072 193.713 134.502 192.819 134.664" stroke="black" stroke-width="2" stroke-linecap="round"/>
<path d="M25 121.007C25.3166 119.882 25.8514 118.501 26.6261 117.007M26.6261 117.007C29.5221 111.424 33.2703 104.77 44 103.507C50.7614 102.712 52.2784 106.238 52.5 109.507C52.8356 114.457 49.7542 118.609 40.5 118.007C27.8578 118.007 26.3165 117.674 26.6261 117.007Z" stroke="black" stroke-width="2" stroke-linecap="round"/>
<path d="M35.5 117.007L30.5 113.007C32.1667 110.674 36 105.907 38 105.507C40.5 105.007 41.5 106.007 42.5 113.007C43.3 118.607 38.1667 118.007 35.5 117.007Z" fill="black" stroke="black" stroke-width="2" stroke-linecap="round"/>
<path d="M44.5 95.0072C37.8333 94.8405 24.2 97.5072 23 109.507" stroke="black" stroke-width="5" stroke-linecap="round"/>
<path d="M5.37629 36.2945C-3.02371 54.2945 6.20962 66.7945 11.8763 70.7945V70.9041C11.8763 72.6972 24.0298 66.4615 45.8763 62.7945C59.6429 60.4837 82.6263 60.481 98.3763 59.2945C113.821 58.1311 155.09 39.4751 156.876 51.2945C163.376 94.2945 166.376 102.295 168.876 104.295C171.376 106.295 181.376 110.795 182.376 104.295C183.376 97.7945 201.376 98.2945 207.376 97.2945C213.376 96.2945 209.876 70.2945 205.876 42.2945C203.268 24.0365 178.427 12.3342 162.376 8.79452C153.812 6.90585 152.399 14.3614 147.876 8.79452C137.476 -4.00548 96.2096 1.79452 76.8763 6.29452C56.5429 8.79452 13.7763 18.2945 5.37629 36.2945Z" fill="#2E241B" stroke="black" stroke-width="2"/>
<path d="M12.4098 72C8.74315 89.5 5.40986 122 10.9098 136.5C13.1032 142.283 11.7469 147.059 10.9098 154C10.199 159.894 12.1297 165.468 12.4099 171.5C12.6289 176.215 26.4243 195.125 46.4099 208.5C69.1324 223.707 99.564 232.429 121.91 217" stroke="black" stroke-width="2"/>
<path d="M58 173L54 177.5C56.1667 177.833 60.8 178.8 62 180C63.5 181.5 86 183 86 180C86 177 79 173 78 173H58Z" fill="black" stroke="black" stroke-width="2" stroke-linecap="round"/>
</svg>
