<svg width="249" height="244" viewBox="0 0 249 244" fill="none" xmlns="http://www.w3.org/2000/svg">
<path d="M103 104L119 89" stroke="black" stroke-width="4" stroke-linecap="round"/>
<path d="M118 80.5C112.851 62.4861 150.896 24.2502 169.816 8.55627C211.364 -14.8384 241.207 30.4888 246.474 48.912C250.981 64.6808 224.94 104.916 191 121C157.06 137.084 124.437 103.017 118 80.5Z" fill="#272727" stroke="black" stroke-width="4" stroke-linecap="round"/>
<path d="M154 123L138 138L103 103.5L119.5 88L154 123Z" fill="#AAAAAA" stroke="black" stroke-width="4" stroke-linecap="round"/>
<path d="M4.77055 221.754C11.9203 214.594 52.9806 170 52.9806 170L73 189.842C73 189.842 39.1219 226.701 20.9087 238.937C4.77054 249.778 -2.37925 228.913 4.77055 221.754Z" fill="#272727" stroke="black" stroke-width="4" stroke-linecap="round"/>
<path d="M158 159.981L82.3602 85L25 142.437L100.009 217L158 159.981Z" fill="white" stroke="black" stroke-width="4" stroke-linecap="round"/>
<path d="M74.5111 144.858L85.8733 155.327L82.5394 158.945L80.8626 157.4L82.7938 155.304L79.683 152.438L70.4707 162.347L72.5666 164.279L71.164 165.801L65.2071 160.312L66.6098 158.79L68.7057 160.721L77.896 150.791L74.7852 147.925L72.854 150.021L71.1773 148.476L74.5111 144.858ZM86.7538 156.138L92.1591 161.119L90.7564 162.641L89.3445 161.34L86.0468 169.479L84.0245 174.02L88.0904 171.689L96.0073 167.479L94.5953 166.178L95.998 164.656L101.138 169.393L99.7358 170.915L97.662 169.004L83.186 176.878L81.2004 175.049L87.4471 159.592L85.3512 157.661L86.7538 156.138Z" fill="black"/>
<path d="M69.3994 126.507C67.6964 124.845 66.5155 123.091 65.8569 121.246C65.2122 119.387 65.1124 117.557 65.5575 115.755C66.0025 113.954 66.9655 112.295 68.4465 110.778C70.5002 108.674 72.717 107.19 75.0968 106.327C77.4909 105.478 79.8009 105.274 82.0266 105.714C84.2664 106.139 86.2163 107.162 87.8764 108.783C89.422 110.292 90.2043 111.838 90.2234 113.422C90.2564 114.992 89.6372 116.427 88.3659 117.73C87.5136 118.603 86.6716 119.15 85.8399 119.373C85.0224 119.609 84.3274 119.447 83.755 118.888C83.3543 118.497 83.1302 118.097 83.0829 117.687C83.0355 117.278 83.1865 116.894 83.5358 116.536C83.6615 116.407 83.9207 116.199 84.3132 115.912C84.8182 115.566 85.1964 115.265 85.4479 115.007C86.7193 113.705 86.6609 112.376 85.2727 111.021C84.3281 110.099 83.1262 109.526 81.6667 109.303C80.2073 109.08 78.6261 109.312 76.923 109.997C75.2339 110.668 73.586 111.826 71.9793 113.472C70.3028 115.189 69.4829 116.988 69.5197 118.869C69.5704 120.735 70.5332 122.583 72.4079 124.413C73.3381 125.322 74.3873 126.122 75.5554 126.815C76.7517 127.508 78.167 128.177 79.8012 128.822C80.0997 128.946 80.3205 129.077 80.4637 129.217C80.6926 129.441 80.7805 129.694 80.7274 129.978C80.6742 130.261 80.5149 130.539 80.2495 130.811C79.3972 131.684 78.2963 131.867 76.9466 131.36C75.4974 130.811 74.117 130.107 72.8055 129.246C71.5222 128.384 70.3869 127.471 69.3994 126.507ZM76.946 133.875C76.4022 133.344 76.2952 132.68 76.625 131.884C76.9692 131.102 77.756 130.082 78.9855 128.822C80.8017 126.962 82.7919 125.453 84.956 124.295C85.49 124.006 85.9909 123.908 86.4587 124.001C86.9549 124.095 87.4677 124.4 87.9972 124.916C88.2834 125.196 88.4488 125.427 88.4935 125.611C88.5381 125.794 88.4626 125.986 88.267 126.186C88.0435 126.415 87.4332 126.825 86.4362 127.417C85.7342 127.85 85.1307 128.239 84.6257 128.585C84.1207 128.93 83.5323 129.39 82.8603 129.964C84.5341 129.194 86.0416 128.709 87.3827 128.509C88.7239 128.309 89.8343 128.317 90.7137 128.533C91.6075 128.762 92.2906 129.108 92.7628 129.569C93.6931 130.477 93.7041 131.396 92.796 132.326C92.6144 132.512 92.1099 132.9 91.2825 133.49C90.6092 133.951 90.2027 134.253 90.063 134.396C89.574 134.897 89.5084 135.322 89.8662 135.671C90.2669 136.062 91.0894 136.25 92.3339 136.235C92.7015 136.231 92.9855 136.327 93.1859 136.522C93.3719 136.704 93.4312 136.929 93.3638 137.199C93.3246 137.468 93.1722 137.739 92.9068 138.011C92.3899 138.54 91.8416 138.815 91.262 138.836C90.4561 138.86 89.6346 138.757 88.7973 138.527C87.9884 138.296 87.2834 137.887 86.6823 137.3C85.9238 136.56 85.5328 135.801 85.5093 135.023C85.5002 134.26 85.8169 133.549 86.4596 132.89C86.6691 132.676 86.9002 132.482 87.1527 132.309C87.4607 132.051 87.6636 131.872 87.7614 131.772C87.985 131.543 88.018 131.351 87.8606 131.198C87.6459 130.988 87.1222 130.952 86.2894 131.089C85.4849 131.226 84.5267 131.521 83.4148 131.972C82.3029 132.424 81.2136 132.982 80.1467 133.645C79.3326 134.164 78.6995 134.441 78.2473 134.474C77.8234 134.508 77.3896 134.308 76.946 133.875ZM102.677 145.914C102.863 146.095 102.916 146.328 102.834 146.612C102.753 146.896 102.572 147.181 102.293 147.467C101.622 148.154 101.017 148.359 100.476 148.083C99.3239 147.545 98.2117 146.795 97.1394 145.832C95.6939 146.769 94.2142 147.211 92.7003 147.158C91.2003 147.091 89.9422 146.562 88.9261 145.57C88.0675 144.732 87.533 143.805 87.3228 142.789C87.1269 141.787 87.2068 140.789 87.5626 139.795C87.9183 138.801 88.4874 137.903 89.2698 137.101C90.3316 136.014 91.4821 135.25 92.7215 134.811C93.9747 134.357 95.1968 134.251 96.3878 134.491C97.5926 134.717 98.6387 135.263 99.526 136.129C100.614 137.191 101.116 138.423 101.034 139.824C100.98 141.225 100.473 142.532 99.5116 143.746C100.226 144.359 101.167 144.999 102.335 145.663C102.477 145.747 102.592 145.83 102.677 145.914ZM91.3193 143.462C91.7772 143.909 92.3524 144.107 93.0448 144.057C93.7515 144.02 94.5044 143.707 95.3035 143.117C95.1532 142.384 95.194 141.655 95.4257 140.931C95.6717 140.221 96.0602 139.594 96.5911 139.05C96.8146 138.821 97.0596 138.613 97.3261 138.426L97.2188 138.321C96.6463 137.762 95.8945 137.573 94.9632 137.754C94.0602 137.935 93.1197 138.526 92.1418 139.528C91.3733 140.315 90.9368 141.063 90.8322 141.771C90.7419 142.493 90.9042 143.057 91.3193 143.462ZM96.4003 152.867C95.8565 152.336 95.7495 151.672 96.0793 150.876C96.4235 150.094 97.2103 149.074 98.4398 147.814C100.256 145.954 102.246 144.445 104.41 143.287C104.944 142.998 105.445 142.9 105.913 142.993C106.409 143.086 106.922 143.391 107.451 143.908C107.738 144.188 107.903 144.419 107.948 144.602C107.992 144.786 107.917 144.978 107.721 145.178C107.498 145.407 106.888 145.817 105.89 146.409C105.189 146.842 104.585 147.231 104.08 147.577C103.575 147.922 102.987 148.382 102.315 148.956C103.988 148.186 105.496 147.701 106.837 147.501C108.178 147.301 109.289 147.309 110.168 147.525C111.062 147.754 111.745 148.1 112.217 148.561C113.147 149.469 113.158 150.388 112.25 151.318C111.705 151.876 110.563 152.732 108.823 153.884C107.336 154.864 106.396 155.554 106.005 155.954C105.446 156.527 105.375 157.016 105.79 157.421C106.076 157.7 106.58 157.857 107.301 157.891C108.051 157.924 109.14 157.868 110.567 157.724C110.934 157.691 111.225 157.78 111.44 157.989C111.626 158.171 111.685 158.397 111.617 158.666C111.564 158.95 111.391 159.242 111.098 159.542C110.539 160.115 109.97 160.425 109.39 160.475C108.035 160.633 106.761 160.606 105.571 160.394C104.394 160.196 103.356 159.656 102.454 158.776C101.724 158.064 101.376 157.318 101.409 156.54C101.456 155.748 101.87 154.951 102.653 154.149C103.044 153.748 103.843 153.131 105.049 152.296C106.115 151.576 106.816 151.044 107.151 150.701C107.375 150.472 107.408 150.28 107.25 150.127C107.064 149.945 106.562 149.93 105.744 150.081C104.953 150.232 103.995 150.526 102.869 150.964C101.757 151.416 100.668 151.974 99.601 152.637C98.7869 153.156 98.1538 153.432 97.7016 153.466C97.2777 153.5 96.8439 153.3 96.4003 152.867ZM119.591 152.993C118.99 152.406 118.672 151.83 118.637 151.265C118.616 150.685 118.85 150.145 119.339 149.644C119.828 149.143 120.426 148.916 121.134 148.965C121.87 149.012 122.532 149.323 123.118 149.895C123.648 150.412 123.951 150.96 124.029 151.539C124.107 152.118 123.915 152.644 123.454 153.116C122.895 153.688 122.262 153.965 121.555 153.945C120.861 153.911 120.207 153.593 119.591 152.993ZM108.166 164.353C107.236 163.445 106.877 162.452 107.091 161.374C107.318 160.311 107.963 159.235 109.025 158.148C109.654 157.504 110.536 156.758 111.671 155.909C112.835 155.061 113.971 154.326 115.081 153.705C115.657 153.372 116.136 153.225 116.519 153.263C116.901 153.301 117.328 153.55 117.8 154.011C118.53 154.724 118.658 155.323 118.183 155.81C117.834 156.168 116.887 156.865 115.344 157.902C113.464 159.141 112.251 160.039 111.706 160.598C111.287 161.027 111.023 161.412 110.914 161.753C110.805 162.093 110.886 162.397 111.158 162.662C111.416 162.913 111.913 163.049 112.648 163.068C113.384 163.088 114.451 163.025 115.849 162.881C116.217 162.849 116.508 162.937 116.722 163.147C116.908 163.328 116.968 163.554 116.9 163.823C116.847 164.107 116.674 164.399 116.38 164.699C115.822 165.272 115.252 165.583 114.673 165.632C111.566 165.981 109.397 165.554 108.166 164.353ZM114.909 170.935C113.506 169.566 112.796 168.104 112.777 166.548C112.786 164.992 113.427 163.563 114.698 162.261C115.83 161.102 117.051 160.309 118.361 159.883C119.671 159.457 120.922 159.364 122.113 159.605C123.304 159.845 124.3 160.356 125.101 161.138C125.888 161.907 126.266 162.737 126.234 163.628C126.231 164.519 125.873 165.33 125.16 166.06C124.574 166.661 123.942 167.036 123.265 167.186C122.602 167.349 122.056 167.221 121.626 166.802C121.355 166.537 121.196 166.256 121.15 165.959C121.118 165.677 121.214 165.421 121.437 165.192C121.535 165.092 121.661 164.991 121.816 164.891C121.97 164.79 122.082 164.718 122.152 164.674C122.434 164.53 122.665 164.364 122.847 164.178C123.028 163.992 123.118 163.8 123.115 163.602C123.127 163.418 123.047 163.242 122.876 163.075C122.547 162.753 122.092 162.603 121.513 162.624C120.947 162.631 120.334 162.801 119.673 163.134C119.012 163.468 118.389 163.935 117.802 164.536C116.181 166.196 116.094 167.731 117.539 169.143C118.126 169.715 118.944 170.137 119.994 170.407C121.072 170.677 122.324 170.74 123.751 170.595C124.118 170.563 124.409 170.651 124.624 170.861C124.81 171.042 124.869 171.268 124.802 171.537C124.749 171.821 124.576 172.113 124.282 172.413C123.751 172.957 123.182 173.268 122.575 173.346C121.092 173.52 119.655 173.374 118.263 172.91C116.9 172.446 115.782 171.787 114.909 170.935ZM120.971 176.853C120.155 176.057 119.804 175.085 119.918 173.938C120.045 172.805 120.619 171.716 121.639 170.672C122.757 169.527 124.076 168.705 125.598 168.205C127.133 167.692 128.638 167.554 130.112 167.791C131.614 168.027 132.858 168.627 133.846 169.591C134.161 169.899 134.305 170.166 134.28 170.392C134.282 170.618 134.166 170.924 133.93 171.309C134.258 171.517 134.586 171.782 134.915 172.103C135.259 172.438 135.44 172.783 135.458 173.136C135.477 173.489 135.332 173.823 135.025 174.138C134.703 174.467 134.073 174.97 133.134 175.646C132.124 176.365 131.185 177.084 130.317 177.801C129.463 178.505 128.553 179.35 127.589 180.338C127.058 180.881 126.56 181.163 126.093 181.183C125.655 181.202 125.186 180.968 124.685 180.479C124.198 180.004 123.945 179.533 123.925 179.066C123.934 178.6 124.196 178.101 124.713 177.572L125.07 177.249C123.425 178.047 122.059 177.915 120.971 176.853ZM123.925 175.502C124.325 175.893 124.963 175.971 125.837 175.734C126.711 175.497 127.975 174.789 129.63 173.609L132.154 171.839C131.554 171.281 130.786 170.979 129.852 170.933C128.932 170.874 127.973 171.055 126.974 171.477C125.975 171.899 125.084 172.511 124.301 173.313C123.882 173.742 123.64 174.148 123.574 174.531C123.536 174.913 123.653 175.237 123.925 175.502Z" fill="#F33737"/>
</svg>
